<svg width="118" height="34" viewBox="0 0 118 34" fill="none" xmlns="http://www.w3.org/2000/svg">
<path d="M9.66671 14.1667V11.3333H10.875V5.66666H9.66671V4.24999L14.5 1.41666L19.3334 4.24999V5.66666H18.125V11.3333H19.3334V14.1667H17.8109L10.1984 19.3233L10.875 14.1667H9.66671ZM15.7084 11.3333V5.66666H13.2917V11.3333H15.7084ZM8.45837 32.5833L8.50671 32.2433L19.5146 24.7917L20.143 29.58L15.7084 32.5833H8.45837ZM9.72712 22.9075L18.4996 17L19.128 21.7742L8.97796 28.645L9.72712 22.9075Z" fill="black"/>
<path d="M49 20.4922C49 22.0781 48.599 23.3359 47.7969 24.2656C47.013 25.1953 46.0286 25.8424 44.8438 26.207C44.4609 26.2982 44.0143 26.362 43.5039 26.3984C42.9935 26.4349 42.5924 26.4531 42.3008 26.4531H36.5039V6.05469H41.9727C43.9049 6.05469 45.4362 6.52865 46.5664 7.47656C47.6966 8.42448 48.2617 9.79167 48.2617 11.5781C48.2617 12.6354 48.0156 13.5013 47.5234 14.1758C47.0312 14.832 46.4206 15.3242 45.6914 15.6523C46.457 15.9076 47.1953 16.4089 47.9062 17.1562C48.6354 17.8854 49 18.9974 49 20.4922ZM39.457 23.8008H41.9727C42.1914 23.8008 42.4922 23.7917 42.875 23.7734C43.276 23.737 43.5768 23.6823 43.7773 23.6094C44.5612 23.3542 45.1263 22.9531 45.4727 22.4062C45.8372 21.8594 46.0195 21.2214 46.0195 20.4922C46.0195 19.7266 45.8372 19.0794 45.4727 18.5508C45.1263 18.0221 44.5612 17.6302 43.7773 17.375C43.5768 17.3021 43.2943 17.2383 42.9297 17.1836C42.5651 17.1289 42.2461 17.1016 41.9727 17.1016H39.457V23.8008ZM45.3086 11.5781C45.3086 10.6667 45.0716 9.99219 44.5977 9.55469C44.1237 9.11719 43.4674 8.85286 42.6289 8.76172C42.4284 8.74349 42.2096 8.73438 41.9727 8.73438C41.7539 8.71615 41.5625 8.70703 41.3984 8.70703H39.457V14.4492H41.4805C41.6263 14.4492 41.8086 14.4492 42.0273 14.4492C42.2643 14.4492 42.4648 14.4401 42.6289 14.4219C43.431 14.3125 44.0781 14.0208 44.5703 13.5469C45.0625 13.0547 45.3086 12.3984 45.3086 11.5781ZM53.5664 17.7578H59.2812C59.2812 16.7552 59.1172 15.8984 58.7891 15.1875C58.5885 14.8594 58.3242 14.5951 57.9961 14.3945C57.668 14.1758 57.276 14.0664 56.8203 14.0664C55.9089 14.0664 55.1341 14.4857 54.4961 15.3242C54.0039 15.9258 53.694 16.737 53.5664 17.7578ZM53.6484 20.2461C53.7031 20.5924 53.7943 20.9388 53.9219 21.2852C54.0677 21.7409 54.2956 22.1875 54.6055 22.625C54.9336 23.0443 55.3438 23.4271 55.8359 23.7734C56 23.8828 56.2643 23.9922 56.6289 24.1016C57.0117 24.1927 57.4583 24.2383 57.9688 24.2383C58.3333 24.2383 58.8164 24.1836 59.418 24.0742C60.0195 23.9648 60.8307 23.6185 61.8516 23.0352V25.6055C60.9583 26.1523 60.0742 26.4987 59.1992 26.6445C58.3242 26.7904 57.4492 26.8177 56.5742 26.7266C55.8086 26.6536 55.043 26.4349 54.2773 26.0703C53.5299 25.6875 52.9193 25.2409 52.4453 24.7305C51.8984 24.0742 51.4336 23.2539 51.0508 22.2695C50.6862 21.2852 50.5039 20.1549 50.5039 18.8789C50.5039 17.8216 50.6406 16.8555 50.9141 15.9805C51.1875 15.0872 51.5885 14.3216 52.1172 13.6836C52.6458 13.0456 53.3021 12.5352 54.0859 12.1523C54.8698 11.7513 55.7812 11.5508 56.8203 11.5508C57.6771 11.5508 58.4883 11.7422 59.2539 12.125C60.0195 12.4896 60.6211 12.9635 61.0586 13.5469C61.8607 14.6042 62.2617 16.2904 62.2617 18.6055V20.2461H53.6484ZM74.8945 26.4531H71.9961V25.168C71.7591 25.4049 71.4583 25.651 71.0938 25.9062C70.638 26.1979 70.1185 26.4167 69.5352 26.5625C68.9518 26.6901 68.2682 26.7539 67.4844 26.7539C67.1198 26.7539 66.6823 26.6628 66.1719 26.4805C65.6797 26.2982 65.2604 26.0339 64.9141 25.6875C64.513 25.3411 64.2122 24.9219 64.0117 24.4297C63.8112 23.9375 63.7109 23.3815 63.7109 22.7617C63.7109 21.6497 64.0026 20.6836 64.5859 19.8633C65.1875 19.043 65.9167 18.487 66.7734 18.1953C67.3385 17.9948 67.931 17.849 68.5508 17.7578C69.1706 17.6667 69.6901 17.6211 70.1094 17.6211H71.9961V16.6641C71.9961 16.5182 71.9596 16.2812 71.8867 15.9531C71.832 15.6068 71.7135 15.2969 71.5312 15.0234C71.3672 14.75 71.112 14.5221 70.7656 14.3398C70.4193 14.1576 70 14.0664 69.5078 14.0664C68.888 14.0664 68.3503 14.2396 67.8945 14.5859C67.457 14.9141 67.2383 15.4792 67.2383 16.2812H64.0391C64.0391 15.4792 64.1393 14.832 64.3398 14.3398C64.5586 13.8294 64.9049 13.3737 65.3789 12.9727C65.8346 12.5534 66.418 12.2161 67.1289 11.9609C67.8581 11.6875 68.651 11.5508 69.5078 11.5508C71.2578 11.5508 72.5885 12.043 73.5 13.0273C74.4297 14.0117 74.8945 15.1875 74.8945 16.5547V26.4531ZM71.9961 20.9844V19.9727C71.8685 19.9727 71.5495 19.9818 71.0391 20C70.5286 20 69.8906 20.0638 69.125 20.1914C68.5052 20.3008 67.9583 20.5286 67.4844 20.875C66.9375 21.3307 66.6641 21.8685 66.6641 22.4883C66.6641 23.1445 66.8281 23.6094 67.1562 23.8828C67.5026 24.138 67.931 24.2656 68.4414 24.2656C68.6419 24.2656 68.9336 24.2201 69.3164 24.1289C69.6992 24.0378 70.0365 23.8919 70.3281 23.6914C70.9479 23.2721 71.4219 22.7617 71.75 22.1602C71.9141 21.8685 71.9961 21.4766 71.9961 20.9844ZM88.6758 16.9922H85.6133C85.6133 16.099 85.4128 15.388 85.0117 14.8594C84.6107 14.3307 84.0182 14.0664 83.2344 14.0664C82.3229 14.0664 81.5391 14.4857 80.8828 15.3242C80.2448 16.1628 79.9258 17.3568 79.9258 18.9062C79.9258 19.2708 79.9531 19.6628 80.0078 20.082C80.0807 20.4831 80.1901 20.8841 80.3359 21.2852C80.4818 21.7591 80.7096 22.2057 81.0195 22.625C81.3477 23.0443 81.7578 23.4271 82.25 23.7734C82.4141 23.8828 82.6784 23.9922 83.043 24.1016C83.4258 24.1927 83.8724 24.2383 84.3828 24.2383C84.7474 24.2383 85.2214 24.1927 85.8047 24.1016C86.388 23.9922 87.2083 23.6367 88.2656 23.0352V25.6055C87.3724 26.1523 86.4883 26.4987 85.6133 26.6445C84.7383 26.7904 83.8633 26.8177 82.9883 26.7266C82.2227 26.6536 81.457 26.4349 80.6914 26.0703C79.944 25.6875 79.3333 25.2409 78.8594 24.7305C78.3125 24.0742 77.8477 23.2539 77.4648 22.2695C77.1003 21.2852 76.918 20.1549 76.918 18.8789C76.918 17.8216 77.0547 16.8555 77.3281 15.9805C77.6016 15.0872 78.0026 14.3216 78.5312 13.6836C79.0599 13.0273 79.7253 12.5078 80.5273 12.125C81.3294 11.7422 82.25 11.5508 83.2891 11.5508C84.0365 11.5508 84.7292 11.6693 85.3672 11.9062C86.0052 12.1432 86.5612 12.4805 87.0352 12.918C87.5273 13.3372 87.9193 13.8568 88.2109 14.4766C88.5208 15.0964 88.6758 15.9349 88.6758 16.9922ZM99.75 19.1797C99.75 18.4688 99.668 17.7669 99.5039 17.0742C99.3398 16.3815 99.1029 15.8164 98.793 15.3789C98.5013 14.9049 98.1458 14.5586 97.7266 14.3398C97.3073 14.1211 96.8789 14.0117 96.4414 14.0117C96.0039 14.0117 95.5755 14.1211 95.1562 14.3398C94.737 14.5586 94.3724 14.9049 94.0625 15.3789C93.7708 15.8164 93.543 16.3815 93.3789 17.0742C93.2148 17.7669 93.1328 18.4688 93.1328 19.1797C93.1328 19.8906 93.2148 20.5924 93.3789 21.2852C93.543 21.9596 93.7708 22.5156 94.0625 22.9531C94.3724 23.4271 94.737 23.7734 95.1562 23.9922C95.5755 24.1927 96.0039 24.293 96.4414 24.293C96.8789 24.293 97.3073 24.1927 97.7266 23.9922C98.1458 23.7734 98.5013 23.4271 98.793 22.9531C99.1029 22.5156 99.3398 21.9596 99.5039 21.2852C99.668 20.5924 99.75 19.8906 99.75 19.1797ZM102.758 19.1797C102.758 20.2005 102.612 21.194 102.32 22.1602C102.029 23.1081 101.609 23.9284 101.062 24.6211C100.479 25.3138 99.7773 25.8424 98.957 26.207C98.1549 26.5716 97.3164 26.7539 96.4414 26.7539C95.5664 26.7539 94.7188 26.5716 93.8984 26.207C93.0964 25.8424 92.4036 25.3138 91.8203 24.6211C91.2734 23.9284 90.8542 23.1081 90.5625 22.1602C90.2708 21.194 90.125 20.2005 90.125 19.1797C90.125 18.1589 90.2708 17.1745 90.5625 16.2266C90.8542 15.2604 91.2734 14.431 91.8203 13.7383C92.4036 13.0091 93.0964 12.4622 93.8984 12.0977C94.7188 11.7331 95.5664 11.5508 96.4414 11.5508C97.3164 11.5508 98.1549 11.7331 98.957 12.0977C99.7773 12.4622 100.479 13.0091 101.062 13.7383C101.609 14.431 102.029 15.2604 102.32 16.2266C102.612 17.1745 102.758 18.1589 102.758 19.1797ZM116.074 26.4531H113.148V17.2656C113.148 16.2812 112.939 15.4792 112.52 14.8594C112.21 14.4219 111.681 14.2031 110.934 14.2031C110.296 14.2031 109.694 14.5221 109.129 15.1602C108.564 15.7982 108.154 16.7734 107.898 18.0859C107.826 18.3958 107.771 18.7148 107.734 19.043C107.716 19.3529 107.707 19.6992 107.707 20.082V26.4531H104.809V11.9062H107.707V13.3828C108.017 12.9271 108.473 12.5078 109.074 12.125C109.676 11.7422 110.35 11.5508 111.098 11.5508C112.647 11.5508 113.85 11.9701 114.707 12.8086C115.618 13.7383 116.074 15.0599 116.074 16.7734V26.4531Z" fill="black"/>
</svg>
